<svg width="402" height="258" viewBox="0 0 402 258" fill="none" xmlns="http://www.w3.org/2000/svg">
<path d="M5 140L29 1" stroke="#303233" stroke-width="10"/>
<path d="M17 70C20.0863 73.6597 28.2071 79.8811 36 75.4895" stroke="#303233" stroke-width="10"/>
<path d="M58 10C37.7675 65.2089 4.47679 167.15 33.1735 133.244" stroke="#303233" stroke-width="10"/>
<path d="M294 27C278.264 70.7425 252.371 151.511 274.691 124.647" stroke="#303233" stroke-width="10"/>
<path d="M55.776 92.944C58.592 92.944 60 94.064 60 96.304L59.136 98.128L58.56 115.696C58.56 123.632 60.16 128.56 63.36 130.48L63.552 131.92C63.36 133.776 62.496 134.704 60.96 134.704H60.384C55.584 131.44 53.184 126.448 53.184 119.728H52.512C49.952 126.896 46.848 130.48 43.2 130.48C39.808 129.52 38.112 126.992 38.112 122.896C38.112 113.872 41.728 104.88 48.96 95.92C51.392 93.936 53.664 92.944 55.776 92.944ZM44.16 119.056L43.776 121.744V123.568H44.736C49.536 111.6 51.936 104.304 51.936 101.68H51.552C47.84 105.84 45.376 111.632 44.16 119.056ZM77.6633 101.488C84.4473 101.488 88.4473 105.744 89.6633 114.256C89.6633 121.808 86.1433 127.216 79.1033 130.48C78.3353 130.864 77.2793 131.056 75.9353 131.056H75.2633L73.1513 130.864V131.056L73.5353 156.688C73.0873 158.672 72.0633 159.664 70.4633 159.664C68.6713 159.088 67.7753 158.16 67.7753 156.88L66.9113 104.656C66.9113 102.992 67.9033 102.128 69.8873 102.064L71.9033 102.928C73.6953 101.968 75.6153 101.488 77.6633 101.488ZM72.8633 111.664L72.5753 114.64L72.8633 124.816L75.5513 125.488C79.8393 125.488 82.6233 122.352 83.9033 116.08V114.64C83.4553 109.584 81.6633 107.056 78.5273 107.056H77.0873C74.2713 107.056 72.8633 108.592 72.8633 111.664ZM105.976 101.488C112.76 101.488 116.76 105.744 117.976 114.256C117.976 121.808 114.456 127.216 107.416 130.48C106.648 130.864 105.592 131.056 104.248 131.056H103.576L101.464 130.864V131.056L101.848 156.688C101.4 158.672 100.376 159.664 98.7758 159.664C96.9838 159.088 96.0878 158.16 96.0878 156.88L95.2238 104.656C95.2238 102.992 96.2158 102.128 98.1998 102.064L100.216 102.928C102.008 101.968 103.928 101.488 105.976 101.488ZM101.176 111.664L100.888 114.64L101.176 124.816L103.864 125.488C108.152 125.488 110.936 122.352 112.216 116.08V114.64C111.768 109.584 109.976 107.056 106.84 107.056H105.4C102.584 107.056 101.176 108.592 101.176 111.664ZM123.632 79.984C126.064 80.496 127.28 81.584 127.28 83.248C126.64 85.04 125.616 85.936 124.208 85.936C121.84 85.488 120.656 84.304 120.656 82.384C121.296 80.784 122.288 79.984 123.632 79.984ZM127.28 93.424C128.304 93.424 129.168 94.352 129.872 96.208L129.008 103.024V107.536C129.008 112.784 129.904 119.664 131.696 128.176C131.056 129.392 129.968 130 128.432 130C125.808 130 124.08 122.32 123.248 106.96V103.6C123.248 96.816 124.592 93.424 127.28 93.424ZM149.117 97.648C154.557 98.096 157.277 100.752 157.277 105.616L157.469 106.864L157.277 121.84C157.277 123.568 158.269 125.904 160.253 128.848V129.04C159.741 130.896 158.813 131.824 157.469 131.824C153.501 130.16 151.517 126.64 151.517 121.264V120.016L151.229 119.824L151.517 119.44V119.248L151.805 106C151.805 104.144 151.005 103.216 149.405 103.216H148.253C145.053 104.496 143.453 111.504 143.453 124.24C143.453 128.656 142.333 130.864 140.093 130.864C138.365 130.864 137.469 129.776 137.405 127.6V118C137.405 105.584 138.493 99.376 140.669 99.376L141.629 99.088L143.645 99.376C145.373 98.224 147.197 97.648 149.117 97.648ZM171.902 95.536C174.462 95.6 178.782 100.08 184.862 108.976L185.054 110.608C185.054 112.4 180.67 113.776 171.902 114.736L171.614 115.024V115.408C172.958 121.168 174.366 124.048 175.838 124.048H176.99C179.038 124.048 182.142 121.84 186.302 117.424H186.878C188.158 117.424 189.15 118.352 189.854 120.208C189.854 121.744 187.166 124.4 181.79 128.176C180.382 129.008 178.686 129.616 176.702 130C171.518 130 167.902 125.136 165.854 115.408C162.91 114.96 161.438 113.744 161.438 111.76C161.438 110.352 162.526 109.424 164.702 108.976V109.36L165.662 108.976V106.576C165.662 99.216 167.742 95.536 171.902 95.536ZM172.478 102.448H171.614L171.23 106V108.976H171.614C175.198 108.848 176.99 108.464 176.99 107.824C175.326 105.328 173.822 103.536 172.478 102.448ZM212.839 91.12C214.567 91.12 215.751 94.032 216.391 99.856C215.751 101.456 214.695 102.256 213.223 102.256C212.199 102.064 211.175 100.88 210.151 98.704L208.423 98.128C205.415 98.128 202.695 100.112 200.263 104.08V104.944C200.263 105.904 204.775 107.504 213.799 109.744C217.575 111.984 219.463 114.704 219.463 117.904C219.463 123.152 215.239 127.632 206.791 131.344L203.239 131.92C197.863 131.344 195.175 128.656 195.175 123.856V123.568C195.175 122.032 196.167 121.136 198.151 120.88C199.687 120.88 200.711 122.48 201.223 125.68L201.991 126.256H203.623C207.271 126.256 210.663 123.76 213.799 118.768V117.52C213.799 115.6 209.607 113.808 201.223 112.144C196.807 110.352 194.599 107.856 194.599 104.656C194.599 100.496 198.087 96.592 205.063 92.944C208.135 92.56 210.727 91.952 212.839 91.12ZM242.276 91.12C244.004 91.12 245.188 94.032 245.828 99.856C245.188 101.456 244.132 102.256 242.66 102.256C241.636 102.064 240.612 100.88 239.588 98.704L237.86 98.128C234.852 98.128 232.132 100.112 229.7 104.08V104.944C229.7 105.904 234.212 107.504 243.236 109.744C247.012 111.984 248.9 114.704 248.9 117.904C248.9 123.152 244.676 127.632 236.228 131.344L232.676 131.92C227.3 131.344 224.612 128.656 224.612 123.856V123.568C224.612 122.032 225.604 121.136 227.588 120.88C229.124 120.88 230.148 122.48 230.66 125.68L231.428 126.256H233.06C236.708 126.256 240.1 123.76 243.236 118.768V117.52C243.236 115.6 239.044 113.808 230.66 112.144C226.244 110.352 224.036 107.856 224.036 104.656C224.036 100.496 227.524 96.592 234.5 92.944C237.572 92.56 240.164 91.952 242.276 91.12Z" fill="#303234"/>
<path d="M179.791 144.427C182.239 144.856 183.491 145.901 183.548 147.565C182.97 149.377 181.978 150.308 180.57 150.356C178.188 149.99 176.965 148.847 176.899 146.928C177.484 145.307 178.447 144.474 179.791 144.427ZM183.897 157.735C184.921 157.699 185.816 158.597 186.583 160.428L185.953 167.27L186.108 171.779C186.288 177.024 187.419 183.869 189.502 192.315C188.904 193.552 187.838 194.197 186.303 194.25C183.68 194.339 181.69 186.723 180.332 171.401L180.217 168.043C179.984 161.263 181.211 157.827 183.897 157.735ZM198.157 140.916C199.97 141.494 200.9 142.455 200.946 143.798L203.159 180.319L203.564 192.121C203.639 194.295 202.748 195.414 200.894 195.478L199.646 195.521C198.469 194.793 197.862 193.917 197.827 192.894L197.445 181.764L195.279 143.8C195.224 142.201 196.183 141.24 198.157 140.916ZM217.977 158.679C220.538 158.655 225.009 162.984 231.39 171.667L231.638 173.291C231.7 175.082 227.365 176.607 218.635 177.867L218.358 178.165L218.371 178.549C219.911 184.259 221.417 187.089 222.888 187.039L224.04 187C226.087 186.929 229.113 184.616 233.119 180.06L233.695 180.04C234.974 179.997 235.997 180.89 236.765 182.721C236.817 184.256 234.222 187.002 228.978 190.961C227.6 191.84 225.926 192.506 223.956 192.958C218.775 193.136 214.994 188.398 212.614 178.746C209.656 178.4 208.144 177.235 208.076 175.252C208.027 173.845 209.083 172.88 211.242 172.358L211.255 172.741L212.202 172.325L212.119 169.926C211.867 162.57 213.82 158.821 217.977 158.679ZM218.79 165.567L217.926 165.597L217.664 169.16L217.766 172.134L218.15 172.121C221.728 171.87 223.505 171.425 223.484 170.785C221.735 168.348 220.17 166.608 218.79 165.567ZM252.151 159.62C257.603 159.881 260.412 162.442 260.579 167.303L260.814 168.544L261.135 183.518C261.195 185.245 262.266 187.545 264.35 190.42L264.356 190.611C263.908 192.484 263.013 193.443 261.67 193.489C257.647 191.962 255.543 188.512 255.359 183.14L255.316 181.892L255.022 181.71L255.297 181.317L255.29 181.125L255.124 167.875C255.06 166.02 254.229 165.12 252.63 165.175L251.478 165.214C248.324 166.603 246.965 173.662 247.402 186.39C247.553 190.804 246.51 193.049 244.271 193.126C242.544 193.185 241.611 192.128 241.473 189.956L241.143 180.361C240.718 167.953 241.592 161.711 243.767 161.636L244.717 161.316L246.741 161.534C248.429 160.324 250.232 159.686 252.151 159.62ZM276.067 158.607L279.981 157.897C281.58 157.842 282.51 158.802 282.77 160.779C282.829 162.506 280.788 163.696 276.648 164.351C274.096 166.487 272.875 169.155 272.985 172.353L273.093 175.519C274.614 182.511 276.909 185.954 279.979 185.849L280.939 185.816C282.73 185.755 285.358 183.968 288.824 180.455L289.399 180.435C290.679 180.391 291.733 181.251 292.562 183.016C291.761 185.797 288.968 188.39 284.183 190.796C283.301 191.21 282.188 191.441 280.845 191.487C274.257 191.713 269.794 186.679 267.456 176.385L267.383 174.274C267.126 166.791 270.021 161.568 276.067 158.607ZM305.113 155.69C307.674 155.666 312.145 159.995 318.527 168.677L318.774 170.302C318.836 172.093 314.502 173.618 305.772 174.878L305.494 175.176L305.507 175.56C307.048 181.27 308.554 184.1 310.025 184.05L311.176 184.01C313.223 183.94 316.249 181.627 320.255 177.071L320.831 177.051C322.11 177.007 323.134 177.901 323.901 179.732C323.953 181.267 321.358 184.013 316.115 187.971C314.736 188.851 313.062 189.517 311.092 189.969C305.911 190.147 302.131 185.409 299.75 175.757C296.793 175.411 295.28 174.246 295.212 172.263C295.164 170.856 296.219 169.891 298.378 169.369L298.392 169.752L299.338 169.336L299.256 166.937C299.003 159.581 300.956 155.832 305.113 155.69ZM305.926 162.578L305.063 162.607L304.801 166.171L304.903 169.145L305.286 169.132C308.864 168.881 310.642 168.436 310.62 167.796C308.871 165.359 307.307 163.619 305.926 162.578Z" fill="#303234"/>
<path d="M297.184 93.808C301.92 93.808 305.504 97.328 307.936 104.368L308.32 106.384C308.32 113.232 305.12 120.24 298.72 127.408C296.16 129.776 293.568 130.96 290.944 130.96C287.104 130.96 284.384 128.752 282.784 124.336C282.208 122.288 281.92 120.496 281.92 118.96V117.808C281.92 107.696 285.6 100.016 292.96 94.768C294.24 94.128 295.648 93.808 297.184 93.808ZM287.584 118.768C287.584 123.12 288.704 125.296 290.944 125.296C295.616 125.296 299.488 119.312 302.56 107.344V105.52C301.472 101.552 299.456 99.568 296.512 99.568C295.36 99.568 294.784 100.368 294.784 101.968C294.784 103.056 293.504 103.92 290.944 104.56C288.704 108.336 287.584 113.072 287.584 118.768ZM314.014 97.648C315.486 97.648 317.086 101.168 318.814 108.208C321.246 113.84 322.622 116.816 322.942 117.136C323.262 117.136 324.446 113.936 326.494 107.536C328.542 101.136 330.494 97.936 332.35 97.936C334.078 98.576 334.942 99.6 334.942 101.008C329.63 114.704 326.974 123.76 326.974 128.176L325.15 130H323.326C321.022 128.336 317.118 119.536 311.614 103.6L310.75 100.048C311.198 98.448 312.286 97.648 314.014 97.648ZM347.652 95.536C350.212 95.6 354.532 100.08 360.612 108.976L360.804 110.608C360.804 112.4 356.42 113.776 347.652 114.736L347.364 115.024V115.408C348.708 121.168 350.116 124.048 351.588 124.048H352.74C354.788 124.048 357.892 121.84 362.052 117.424H362.628C363.908 117.424 364.9 118.352 365.604 120.208C365.604 121.744 362.916 124.4 357.54 128.176C356.132 129.008 354.436 129.616 352.452 130C347.268 130 343.652 125.136 341.604 115.408C338.66 114.96 337.188 113.744 337.188 111.76C337.188 110.352 338.276 109.424 340.452 108.976V109.36L341.412 108.976V106.576C341.412 99.216 343.492 95.536 347.652 95.536ZM348.228 102.448H347.364L346.98 106V108.976H347.364C350.948 108.848 352.74 108.464 352.74 107.824C351.076 105.328 349.572 103.536 348.228 102.448ZM388.589 91.12C390.317 91.12 391.501 94.032 392.141 99.856C391.501 101.456 390.445 102.256 388.973 102.256C387.949 102.064 386.925 100.88 385.901 98.704L384.173 98.128C381.165 98.128 378.445 100.112 376.013 104.08V104.944C376.013 105.904 380.525 107.504 389.549 109.744C393.325 111.984 395.213 114.704 395.213 117.904C395.213 123.152 390.989 127.632 382.541 131.344L378.989 131.92C373.613 131.344 370.925 128.656 370.925 123.856V123.568C370.925 122.032 371.917 121.136 373.901 120.88C375.437 120.88 376.461 122.48 376.973 125.68L377.741 126.256H379.373C383.021 126.256 386.413 123.76 389.549 118.768V117.52C389.549 115.6 385.357 113.808 376.973 112.144C372.557 110.352 370.349 107.856 370.349 104.656C370.349 100.496 373.837 96.592 380.813 92.944C383.885 92.56 386.477 91.952 388.589 91.12Z" fill="#303234"/>
<path d="M158.544 172.129C126.481 152.219 108.445 173.744 122.974 185.044C137.503 196.345 244.022 228.5 177.582 246.39C81.042 272.384 59.8502 212.309 63.3571 191.502" stroke="#303233" stroke-width="10"/>
</svg>
